<svg version="1.1" id="Layer_1" xmlns="http://www.w3.org/2000/svg" xmlns:xlink="http://www.w3.org/1999/xlink" x="0px" y="0px" width="1334px" height="1334px" viewBox="0 0 1334 1334" enable-background="new 0 0 1334 1334" xml:space="preserve">
<rect x="0" y="0" width="1334" height="1334" fill="#181818"/><g transform="translate(92,92)"><g transform="translate(506,0) scale(0.092,0.092)">
<g transform="" style="fill: rgb(255, 249, 249);">
<path d="M250,0c138.077,0,250,111.93,250,250c0,138.077-111.923,250-250,250C111.93,500,0,388.077,0,250C0,111.93,111.93,0,250,0z"/>
</g></g><g transform="translate(552,0) scale(0.092,0.092)"><g transform="" style="fill: rgb(255, 249, 249);">
<path d="M250,0c138.077,0,250,111.93,250,250c0,138.077-111.923,250-250,250C111.93,500,0,388.077,0,250C0,111.93,111.93,0,250,0z"/>
</g></g><g transform="translate(644,0) scale(0.092,0.092)"><g transform="" style="fill: rgb(255, 249, 249);">
<path d="M250,0c138.077,0,250,111.93,250,250c0,138.077-111.923,250-250,250C111.93,500,0,388.077,0,250C0,111.93,111.93,0,250,0z"/>
</g></g><g transform="translate(368,46) scale(0.092,0.092)"><g transform="" style="fill: rgb(255, 249, 249);">
<path d="M250,0c138.077,0,250,111.93,250,250c0,138.077-111.923,250-250,250C111.93,500,0,388.077,0,250C0,111.93,111.93,0,250,0z"/>
</g></g><g transform="translate(460,46) scale(0.092,0.092)"><g transform="" style="fill: rgb(255, 249, 249);">
<path d="M250,0c138.077,0,250,111.93,250,250c0,138.077-111.923,250-250,250C111.93,500,0,388.077,0,250C0,111.93,111.93,0,250,0z"/>
</g></g><g transform="translate(506,46) scale(0.092,0.092)"><g transform="" style="fill: rgb(255, 249, 249);">
<path d="M250,0c138.077,0,250,111.93,250,250c0,138.077-111.923,250-250,250C111.93,500,0,388.077,0,250C0,111.93,111.93,0,250,0z"/>
</g></g><g transform="translate(644,46) scale(0.092,0.092)"><g transform="" style="fill: rgb(255, 249, 249);">
<path d="M250,0c138.077,0,250,111.93,250,250c0,138.077-111.923,250-250,250C111.93,500,0,388.077,0,250C0,111.93,111.93,0,250,0z"/>
</g></g><g transform="translate(736,46) scale(0.092,0.092)"><g transform="" style="fill: rgb(255, 249, 249);">
<path d="M250,0c138.077,0,250,111.93,250,250c0,138.077-111.923,250-250,250C111.93,500,0,388.077,0,250C0,111.93,111.93,0,250,0z"/>
</g></g><g transform="translate(368,92) scale(0.092,0.092)"><g transform="" style="fill: rgb(255, 249, 249);">
<path d="M250,0c138.077,0,250,111.93,250,250c0,138.077-111.923,250-250,250C111.93,500,0,388.077,0,250C0,111.93,111.93,0,250,0z"/>
</g></g><g transform="translate(414,92) scale(0.092,0.092)"><g transform="" style="fill: rgb(255, 249, 249);">
<path d="M250,0c138.077,0,250,111.93,250,250c0,138.077-111.923,250-250,250C111.93,500,0,388.077,0,250C0,111.93,111.93,0,250,0z"/>
</g></g><g transform="translate(644,92) scale(0.092,0.092)"><g transform="" style="fill: rgb(255, 249, 249);">
<path d="M250,0c138.077,0,250,111.93,250,250c0,138.077-111.923,250-250,250C111.93,500,0,388.077,0,250C0,111.93,111.93,0,250,0z"/>
</g></g><g transform="translate(736,92) scale(0.092,0.092)"><g transform="" style="fill: rgb(255, 249, 249);">
<path d="M250,0c138.077,0,250,111.93,250,250c0,138.077-111.923,250-250,250C111.93,500,0,388.077,0,250C0,111.93,111.93,0,250,0z"/>
</g></g><g transform="translate(368,138) scale(0.092,0.092)"><g transform="" style="fill: rgb(255, 249, 249);">
<path d="M250,0c138.077,0,250,111.93,250,250c0,138.077-111.923,250-250,250C111.93,500,0,388.077,0,250C0,111.93,111.93,0,250,0z"/>
</g></g><g transform="translate(506,138) scale(0.092,0.092)"><g transform="" style="fill: rgb(255, 249, 249);">
<path d="M250,0c138.077,0,250,111.93,250,250c0,138.077-111.923,250-250,250C111.93,500,0,388.077,0,250C0,111.93,111.93,0,250,0z"/>
</g></g><g transform="translate(598,138) scale(0.092,0.092)"><g transform="" style="fill: rgb(255, 249, 249);">
<path d="M250,0c138.077,0,250,111.93,250,250c0,138.077-111.923,250-250,250C111.93,500,0,388.077,0,250C0,111.93,111.93,0,250,0z"/>
</g></g><g transform="translate(644,138) scale(0.092,0.092)"><g transform="" style="fill: rgb(255, 249, 249);">
<path d="M250,0c138.077,0,250,111.93,250,250c0,138.077-111.923,250-250,250C111.93,500,0,388.077,0,250C0,111.93,111.93,0,250,0z"/>
</g></g><g transform="translate(690,138) scale(0.092,0.092)"><g transform="" style="fill: rgb(255, 249, 249);">
<path d="M250,0c138.077,0,250,111.93,250,250c0,138.077-111.923,250-250,250C111.93,500,0,388.077,0,250C0,111.93,111.93,0,250,0z"/>
</g></g><g transform="translate(736,138) scale(0.092,0.092)"><g transform="" style="fill: rgb(255, 249, 249);">
<path d="M250,0c138.077,0,250,111.93,250,250c0,138.077-111.923,250-250,250C111.93,500,0,388.077,0,250C0,111.93,111.93,0,250,0z"/>
</g></g><g transform="translate(460,184) scale(0.092,0.092)"><g transform="" style="fill: rgb(255, 249, 249);">
<path d="M250,0c138.077,0,250,111.93,250,250c0,138.077-111.923,250-250,250C111.93,500,0,388.077,0,250C0,111.93,111.93,0,250,0z"/>
</g></g><g transform="translate(506,184) scale(0.092,0.092)"><g transform="" style="fill: rgb(255, 249, 249);">
<path d="M250,0c138.077,0,250,111.93,250,250c0,138.077-111.923,250-250,250C111.93,500,0,388.077,0,250C0,111.93,111.93,0,250,0z"/>
</g></g><g transform="translate(598,184) scale(0.092,0.092)"><g transform="" style="fill: rgb(255, 249, 249);">
<path d="M250,0c138.077,0,250,111.93,250,250c0,138.077-111.923,250-250,250C111.93,500,0,388.077,0,250C0,111.93,111.93,0,250,0z"/>
</g></g><g transform="translate(736,184) scale(0.092,0.092)"><g transform="" style="fill: rgb(255, 249, 249);">
<path d="M250,0c138.077,0,250,111.93,250,250c0,138.077-111.923,250-250,250C111.93,500,0,388.077,0,250C0,111.93,111.93,0,250,0z"/>
</g></g><g transform="translate(460,230) scale(0.092,0.092)"><g transform="" style="fill: rgb(255, 249, 249);">
<path d="M250,0c138.077,0,250,111.93,250,250c0,138.077-111.923,250-250,250C111.93,500,0,388.077,0,250C0,111.93,111.93,0,250,0z"/>
</g></g><g transform="translate(598,230) scale(0.092,0.092)"><g transform="" style="fill: rgb(255, 249, 249);">
<path d="M250,0c138.077,0,250,111.93,250,250c0,138.077-111.923,250-250,250C111.93,500,0,388.077,0,250C0,111.93,111.93,0,250,0z"/>
</g></g><g transform="translate(644,230) scale(0.092,0.092)"><g transform="" style="fill: rgb(255, 249, 249);">
<path d="M250,0c138.077,0,250,111.93,250,250c0,138.077-111.923,250-250,250C111.93,500,0,388.077,0,250C0,111.93,111.93,0,250,0z"/>
</g></g><g transform="translate(736,230) scale(0.092,0.092)"><g transform="" style="fill: rgb(255, 249, 249);">
<path d="M250,0c138.077,0,250,111.93,250,250c0,138.077-111.923,250-250,250C111.93,500,0,388.077,0,250C0,111.93,111.93,0,250,0z"/>
</g></g><g transform="translate(368,276) scale(0.092,0.092)"><g transform="" style="fill: rgb(255, 249, 249);">
<path d="M250,0c138.077,0,250,111.93,250,250c0,138.077-111.923,250-250,250C111.93,500,0,388.077,0,250C0,111.93,111.93,0,250,0z"/>
</g></g><g transform="translate(460,276) scale(0.092,0.092)"><g transform="" style="fill: rgb(255, 249, 249);">
<path d="M250,0c138.077,0,250,111.93,250,250c0,138.077-111.923,250-250,250C111.93,500,0,388.077,0,250C0,111.93,111.93,0,250,0z"/>
</g></g><g transform="translate(552,276) scale(0.092,0.092)"><g transform="" style="fill: rgb(255, 249, 249);">
<path d="M250,0c138.077,0,250,111.93,250,250c0,138.077-111.923,250-250,250C111.93,500,0,388.077,0,250C0,111.93,111.93,0,250,0z"/>
</g></g><g transform="translate(644,276) scale(0.092,0.092)"><g transform="" style="fill: rgb(255, 249, 249);">
<path d="M250,0c138.077,0,250,111.93,250,250c0,138.077-111.923,250-250,250C111.93,500,0,388.077,0,250C0,111.93,111.93,0,250,0z"/>
</g></g><g transform="translate(736,276) scale(0.092,0.092)"><g transform="" style="fill: rgb(255, 249, 249);">
<path d="M250,0c138.077,0,250,111.93,250,250c0,138.077-111.923,250-250,250C111.93,500,0,388.077,0,250C0,111.93,111.93,0,250,0z"/>
</g></g><g transform="translate(368,322) scale(0.092,0.092)"><g transform="" style="fill: rgb(255, 249, 249);">
<path d="M250,0c138.077,0,250,111.93,250,250c0,138.077-111.923,250-250,250C111.93,500,0,388.077,0,250C0,111.93,111.93,0,250,0z"/>
</g></g><g transform="translate(644,322) scale(0.092,0.092)"><g transform="" style="fill: rgb(255, 249, 249);">
<path d="M250,0c138.077,0,250,111.93,250,250c0,138.077-111.923,250-250,250C111.93,500,0,388.077,0,250C0,111.93,111.93,0,250,0z"/>
</g></g><g transform="translate(690,322) scale(0.092,0.092)"><g transform="" style="fill: rgb(255, 249, 249);">
<path d="M250,0c138.077,0,250,111.93,250,250c0,138.077-111.923,250-250,250C111.93,500,0,388.077,0,250C0,111.93,111.93,0,250,0z"/>
</g></g><g transform="translate(0,368) scale(0.092,0.092)"><g transform="" style="fill: rgb(255, 249, 249);">
<path d="M250,0c138.077,0,250,111.93,250,250c0,138.077-111.923,250-250,250C111.93,500,0,388.077,0,250C0,111.93,111.93,0,250,0z"/>
</g></g><g transform="translate(276,368) scale(0.092,0.092)"><g transform="" style="fill: rgb(255, 249, 249);">
<path d="M250,0c138.077,0,250,111.93,250,250c0,138.077-111.923,250-250,250C111.93,500,0,388.077,0,250C0,111.93,111.93,0,250,0z"/>
</g></g><g transform="translate(368,368) scale(0.092,0.092)"><g transform="" style="fill: rgb(255, 249, 249);">
<path d="M250,0c138.077,0,250,111.93,250,250c0,138.077-111.923,250-250,250C111.93,500,0,388.077,0,250C0,111.93,111.93,0,250,0z"/>
</g></g><g transform="translate(460,368) scale(0.092,0.092)"><g transform="" style="fill: rgb(255, 249, 249);">
<path d="M250,0c138.077,0,250,111.93,250,250c0,138.077-111.923,250-250,250C111.93,500,0,388.077,0,250C0,111.93,111.93,0,250,0z"/>
</g></g><g transform="translate(506,368) scale(0.092,0.092)"><g transform="" style="fill: rgb(255, 249, 249);">
<path d="M250,0c138.077,0,250,111.93,250,250c0,138.077-111.923,250-250,250C111.93,500,0,388.077,0,250C0,111.93,111.93,0,250,0z"/>
</g></g><g transform="translate(598,368) scale(0.092,0.092)"><g transform="" style="fill: rgb(255, 249, 249);">
<path d="M250,0c138.077,0,250,111.93,250,250c0,138.077-111.923,250-250,250C111.93,500,0,388.077,0,250C0,111.93,111.93,0,250,0z"/>
</g></g><g transform="translate(644,368) scale(0.092,0.092)"><g transform="" style="fill: rgb(255, 249, 249);">
<path d="M250,0c138.077,0,250,111.93,250,250c0,138.077-111.923,250-250,250C111.93,500,0,388.077,0,250C0,111.93,111.93,0,250,0z"/>
</g></g><g transform="translate(690,368) scale(0.092,0.092)"><g transform="" style="fill: rgb(255, 249, 249);">
<path d="M250,0c138.077,0,250,111.93,250,250c0,138.077-111.923,250-250,250C111.93,500,0,388.077,0,250C0,111.93,111.93,0,250,0z"/>
</g></g><g transform="translate(782,368) scale(0.092,0.092)"><g transform="" style="fill: rgb(255, 249, 249);">
<path d="M250,0c138.077,0,250,111.93,250,250c0,138.077-111.923,250-250,250C111.93,500,0,388.077,0,250C0,111.93,111.93,0,250,0z"/>
</g></g><g transform="translate(828,368) scale(0.092,0.092)"><g transform="" style="fill: rgb(255, 249, 249);">
<path d="M250,0c138.077,0,250,111.93,250,250c0,138.077-111.923,250-250,250C111.93,500,0,388.077,0,250C0,111.93,111.93,0,250,0z"/>
</g></g><g transform="translate(966,368) scale(0.092,0.092)"><g transform="" style="fill: rgb(255, 249, 249);">
<path d="M250,0c138.077,0,250,111.93,250,250c0,138.077-111.923,250-250,250C111.93,500,0,388.077,0,250C0,111.93,111.93,0,250,0z"/>
</g></g><g transform="translate(1012,368) scale(0.092,0.092)"><g transform="" style="fill: rgb(255, 249, 249);">
<path d="M250,0c138.077,0,250,111.93,250,250c0,138.077-111.923,250-250,250C111.93,500,0,388.077,0,250C0,111.93,111.93,0,250,0z"/>
</g></g><g transform="translate(1058,368) scale(0.092,0.092)"><g transform="" style="fill: rgb(255, 249, 249);">
<path d="M250,0c138.077,0,250,111.93,250,250c0,138.077-111.923,250-250,250C111.93,500,0,388.077,0,250C0,111.93,111.93,0,250,0z"/>
</g></g><g transform="translate(92,414) scale(0.092,0.092)"><g transform="" style="fill: rgb(255, 249, 249);">
<path d="M250,0c138.077,0,250,111.93,250,250c0,138.077-111.923,250-250,250C111.93,500,0,388.077,0,250C0,111.93,111.93,0,250,0z"/>
</g></g><g transform="translate(184,414) scale(0.092,0.092)"><g transform="" style="fill: rgb(255, 249, 249);">
<path d="M250,0c138.077,0,250,111.93,250,250c0,138.077-111.923,250-250,250C111.93,500,0,388.077,0,250C0,111.93,111.93,0,250,0z"/>
</g></g><g transform="translate(322,414) scale(0.092,0.092)"><g transform="" style="fill: rgb(255, 249, 249);">
<path d="M250,0c138.077,0,250,111.93,250,250c0,138.077-111.923,250-250,250C111.93,500,0,388.077,0,250C0,111.93,111.93,0,250,0z"/>
</g></g><g transform="translate(368,414) scale(0.092,0.092)"><g transform="" style="fill: rgb(255, 249, 249);">
<path d="M250,0c138.077,0,250,111.93,250,250c0,138.077-111.923,250-250,250C111.93,500,0,388.077,0,250C0,111.93,111.93,0,250,0z"/>
</g></g><g transform="translate(414,414) scale(0.092,0.092)"><g transform="" style="fill: rgb(255, 249, 249);">
<path d="M250,0c138.077,0,250,111.93,250,250c0,138.077-111.923,250-250,250C111.93,500,0,388.077,0,250C0,111.93,111.93,0,250,0z"/>
</g></g><g transform="translate(506,414) scale(0.092,0.092)"><g transform="" style="fill: rgb(255, 249, 249);">
<path d="M250,0c138.077,0,250,111.93,250,250c0,138.077-111.923,250-250,250C111.93,500,0,388.077,0,250C0,111.93,111.93,0,250,0z"/>
</g></g><g transform="translate(552,414) scale(0.092,0.092)"><g transform="" style="fill: rgb(255, 249, 249);">
<path d="M250,0c138.077,0,250,111.93,250,250c0,138.077-111.923,250-250,250C111.93,500,0,388.077,0,250C0,111.93,111.93,0,250,0z"/>
</g></g><g transform="translate(690,414) scale(0.092,0.092)"><g transform="" style="fill: rgb(255, 249, 249);">
<path d="M250,0c138.077,0,250,111.93,250,250c0,138.077-111.923,250-250,250C111.93,500,0,388.077,0,250C0,111.93,111.93,0,250,0z"/>
</g></g><g transform="translate(874,414) scale(0.092,0.092)"><g transform="" style="fill: rgb(255, 249, 249);">
<path d="M250,0c138.077,0,250,111.93,250,250c0,138.077-111.923,250-250,250C111.93,500,0,388.077,0,250C0,111.93,111.93,0,250,0z"/>
</g></g><g transform="translate(920,414) scale(0.092,0.092)"><g transform="" style="fill: rgb(255, 249, 249);">
<path d="M250,0c138.077,0,250,111.93,250,250c0,138.077-111.923,250-250,250C111.93,500,0,388.077,0,250C0,111.93,111.93,0,250,0z"/>
</g></g><g transform="translate(966,414) scale(0.092,0.092)"><g transform="" style="fill: rgb(255, 249, 249);">
<path d="M250,0c138.077,0,250,111.93,250,250c0,138.077-111.923,250-250,250C111.93,500,0,388.077,0,250C0,111.93,111.93,0,250,0z"/>
</g></g><g transform="translate(1012,414) scale(0.092,0.092)"><g transform="" style="fill: rgb(255, 249, 249);">
<path d="M250,0c138.077,0,250,111.93,250,250c0,138.077-111.923,250-250,250C111.93,500,0,388.077,0,250C0,111.93,111.93,0,250,0z"/>
</g></g><g transform="translate(1058,414) scale(0.092,0.092)"><g transform="" style="fill: rgb(255, 249, 249);">
<path d="M250,0c138.077,0,250,111.93,250,250c0,138.077-111.923,250-250,250C111.93,500,0,388.077,0,250C0,111.93,111.93,0,250,0z"/>
</g></g><g transform="translate(0,460) scale(0.092,0.092)"><g transform="" style="fill: rgb(255, 249, 249);">
<path d="M250,0c138.077,0,250,111.93,250,250c0,138.077-111.923,250-250,250C111.93,500,0,388.077,0,250C0,111.93,111.93,0,250,0z"/>
</g></g><g transform="translate(230,460) scale(0.092,0.092)"><g transform="" style="fill: rgb(255, 249, 249);">
<path d="M250,0c138.077,0,250,111.93,250,250c0,138.077-111.923,250-250,250C111.93,500,0,388.077,0,250C0,111.93,111.93,0,250,0z"/>
</g></g><g transform="translate(276,460) scale(0.092,0.092)"><g transform="" style="fill: rgb(255, 249, 249);">
<path d="M250,0c138.077,0,250,111.93,250,250c0,138.077-111.923,250-250,250C111.93,500,0,388.077,0,250C0,111.93,111.93,0,250,0z"/>
</g></g><g transform="translate(322,460) scale(0.092,0.092)"><g transform="" style="fill: rgb(255, 249, 249);">
<path d="M250,0c138.077,0,250,111.93,250,250c0,138.077-111.923,250-250,250C111.93,500,0,388.077,0,250C0,111.93,111.93,0,250,0z"/>
</g></g><g transform="translate(414,460) scale(0.092,0.092)"><g transform="" style="fill: rgb(255, 249, 249);">
<path d="M250,0c138.077,0,250,111.93,250,250c0,138.077-111.923,250-250,250C111.93,500,0,388.077,0,250C0,111.93,111.93,0,250,0z"/>
</g></g><g transform="translate(460,460) scale(0.092,0.092)"><g transform="" style="fill: rgb(255, 249, 249);">
<path d="M250,0c138.077,0,250,111.93,250,250c0,138.077-111.923,250-250,250C111.93,500,0,388.077,0,250C0,111.93,111.93,0,250,0z"/>
</g></g><g transform="translate(552,460) scale(0.092,0.092)"><g transform="" style="fill: rgb(255, 249, 249);">
<path d="M250,0c138.077,0,250,111.93,250,250c0,138.077-111.923,250-250,250C111.93,500,0,388.077,0,250C0,111.93,111.93,0,250,0z"/>
</g></g><g transform="translate(598,460) scale(0.092,0.092)"><g transform="" style="fill: rgb(255, 249, 249);">
<path d="M250,0c138.077,0,250,111.93,250,250c0,138.077-111.923,250-250,250C111.93,500,0,388.077,0,250C0,111.93,111.93,0,250,0z"/>
</g></g><g transform="translate(690,460) scale(0.092,0.092)"><g transform="" style="fill: rgb(255, 249, 249);">
<path d="M250,0c138.077,0,250,111.93,250,250c0,138.077-111.923,250-250,250C111.93,500,0,388.077,0,250C0,111.93,111.93,0,250,0z"/>
</g></g><g transform="translate(874,460) scale(0.092,0.092)"><g transform="" style="fill: rgb(255, 249, 249);">
<path d="M250,0c138.077,0,250,111.93,250,250c0,138.077-111.923,250-250,250C111.93,500,0,388.077,0,250C0,111.93,111.93,0,250,0z"/>
</g></g><g transform="translate(920,460) scale(0.092,0.092)"><g transform="" style="fill: rgb(255, 249, 249);">
<path d="M250,0c138.077,0,250,111.93,250,250c0,138.077-111.923,250-250,250C111.93,500,0,388.077,0,250C0,111.93,111.93,0,250,0z"/>
</g></g><g transform="translate(966,460) scale(0.092,0.092)"><g transform="" style="fill: rgb(255, 249, 249);">
<path d="M250,0c138.077,0,250,111.93,250,250c0,138.077-111.923,250-250,250C111.93,500,0,388.077,0,250C0,111.93,111.93,0,250,0z"/>
</g></g><g transform="translate(1058,460) scale(0.092,0.092)"><g transform="" style="fill: rgb(255, 249, 249);">
<path d="M250,0c138.077,0,250,111.93,250,250c0,138.077-111.923,250-250,250C111.93,500,0,388.077,0,250C0,111.93,111.93,0,250,0z"/>
</g></g><g transform="translate(1104,460) scale(0.092,0.092)"><g transform="" style="fill: rgb(255, 249, 249);">
<path d="M250,0c138.077,0,250,111.93,250,250c0,138.077-111.923,250-250,250C111.93,500,0,388.077,0,250C0,111.93,111.93,0,250,0z"/>
</g></g><g transform="translate(0,506) scale(0.092,0.092)"><g transform="" style="fill: rgb(255, 249, 249);">
<path d="M250,0c138.077,0,250,111.93,250,250c0,138.077-111.923,250-250,250C111.93,500,0,388.077,0,250C0,111.93,111.93,0,250,0z"/>
</g></g><g transform="translate(46,506) scale(0.092,0.092)"><g transform="" style="fill: rgb(255, 249, 249);">
<path d="M250,0c138.077,0,250,111.93,250,250c0,138.077-111.923,250-250,250C111.93,500,0,388.077,0,250C0,111.93,111.93,0,250,0z"/>
</g></g><g transform="translate(92,506) scale(0.092,0.092)"><g transform="" style="fill: rgb(255, 249, 249);">
<path d="M250,0c138.077,0,250,111.93,250,250c0,138.077-111.923,250-250,250C111.93,500,0,388.077,0,250C0,111.93,111.93,0,250,0z"/>
</g></g><g transform="translate(184,506) scale(0.092,0.092)"><g transform="" style="fill: rgb(255, 249, 249);">
<path d="M250,0c138.077,0,250,111.93,250,250c0,138.077-111.923,250-250,250C111.93,500,0,388.077,0,250C0,111.93,111.93,0,250,0z"/>
</g></g><g transform="translate(230,506) scale(0.092,0.092)"><g transform="" style="fill: rgb(255, 249, 249);">
<path d="M250,0c138.077,0,250,111.93,250,250c0,138.077-111.923,250-250,250C111.93,500,0,388.077,0,250C0,111.93,111.93,0,250,0z"/>
</g></g><g transform="translate(322,506) scale(0.092,0.092)"><g transform="" style="fill: rgb(255, 249, 249);">
<path d="M250,0c138.077,0,250,111.93,250,250c0,138.077-111.923,250-250,250C111.93,500,0,388.077,0,250C0,111.93,111.93,0,250,0z"/>
</g></g><g transform="translate(368,506) scale(0.092,0.092)"><g transform="" style="fill: rgb(255, 249, 249);">
<path d="M250,0c138.077,0,250,111.93,250,250c0,138.077-111.923,250-250,250C111.93,500,0,388.077,0,250C0,111.93,111.93,0,250,0z"/>
</g></g><g transform="translate(460,506) scale(0.092,0.092)"><g transform="" style="fill: rgb(255, 249, 249);">
<path d="M250,0c138.077,0,250,111.93,250,250c0,138.077-111.923,250-250,250C111.93,500,0,388.077,0,250C0,111.93,111.93,0,250,0z"/>
</g></g><g transform="translate(506,506) scale(0.092,0.092)"><g transform="" style="fill: rgb(255, 249, 249);">
<path d="M250,0c138.077,0,250,111.93,250,250c0,138.077-111.923,250-250,250C111.93,500,0,388.077,0,250C0,111.93,111.93,0,250,0z"/>
</g></g><g transform="translate(644,506) scale(0.092,0.092)"><g transform="" style="fill: rgb(255, 249, 249);">
<path d="M250,0c138.077,0,250,111.93,250,250c0,138.077-111.923,250-250,250C111.93,500,0,388.077,0,250C0,111.93,111.93,0,250,0z"/>
</g></g><g transform="translate(690,506) scale(0.092,0.092)"><g transform="" style="fill: rgb(255, 249, 249);">
<path d="M250,0c138.077,0,250,111.93,250,250c0,138.077-111.923,250-250,250C111.93,500,0,388.077,0,250C0,111.93,111.93,0,250,0z"/>
</g></g><g transform="translate(736,506) scale(0.092,0.092)"><g transform="" style="fill: rgb(255, 249, 249);">
<path d="M250,0c138.077,0,250,111.93,250,250c0,138.077-111.923,250-250,250C111.93,500,0,388.077,0,250C0,111.93,111.93,0,250,0z"/>
</g></g><g transform="translate(782,506) scale(0.092,0.092)"><g transform="" style="fill: rgb(255, 249, 249);">
<path d="M250,0c138.077,0,250,111.93,250,250c0,138.077-111.923,250-250,250C111.93,500,0,388.077,0,250C0,111.93,111.93,0,250,0z"/>
</g></g><g transform="translate(828,506) scale(0.092,0.092)"><g transform="" style="fill: rgb(255, 249, 249);">
<path d="M250,0c138.077,0,250,111.93,250,250c0,138.077-111.923,250-250,250C111.93,500,0,388.077,0,250C0,111.93,111.93,0,250,0z"/>
</g></g><g transform="translate(874,506) scale(0.092,0.092)"><g transform="" style="fill: rgb(255, 249, 249);">
<path d="M250,0c138.077,0,250,111.93,250,250c0,138.077-111.923,250-250,250C111.93,500,0,388.077,0,250C0,111.93,111.93,0,250,0z"/>
</g></g><g transform="translate(966,506) scale(0.092,0.092)"><g transform="" style="fill: rgb(255, 249, 249);">
<path d="M250,0c138.077,0,250,111.93,250,250c0,138.077-111.923,250-250,250C111.93,500,0,388.077,0,250C0,111.93,111.93,0,250,0z"/>
</g></g><g transform="translate(1104,506) scale(0.092,0.092)"><g transform="" style="fill: rgb(255, 249, 249);">
<path d="M250,0c138.077,0,250,111.93,250,250c0,138.077-111.923,250-250,250C111.93,500,0,388.077,0,250C0,111.93,111.93,0,250,0z"/>
</g></g><g transform="translate(92,552) scale(0.092,0.092)"><g transform="" style="fill: rgb(255, 249, 249);">
<path d="M250,0c138.077,0,250,111.93,250,250c0,138.077-111.923,250-250,250C111.93,500,0,388.077,0,250C0,111.93,111.93,0,250,0z"/>
</g></g><g transform="translate(184,552) scale(0.092,0.092)"><g transform="" style="fill: rgb(255, 249, 249);">
<path d="M250,0c138.077,0,250,111.93,250,250c0,138.077-111.923,250-250,250C111.93,500,0,388.077,0,250C0,111.93,111.93,0,250,0z"/>
</g></g><g transform="translate(230,552) scale(0.092,0.092)"><g transform="" style="fill: rgb(255, 249, 249);">
<path d="M250,0c138.077,0,250,111.93,250,250c0,138.077-111.923,250-250,250C111.93,500,0,388.077,0,250C0,111.93,111.93,0,250,0z"/>
</g></g><g transform="translate(276,552) scale(0.092,0.092)"><g transform="" style="fill: rgb(255, 249, 249);">
<path d="M250,0c138.077,0,250,111.93,250,250c0,138.077-111.923,250-250,250C111.93,500,0,388.077,0,250C0,111.93,111.93,0,250,0z"/>
</g></g><g transform="translate(322,552) scale(0.092,0.092)"><g transform="" style="fill: rgb(255, 249, 249);">
<path d="M250,0c138.077,0,250,111.93,250,250c0,138.077-111.923,250-250,250C111.93,500,0,388.077,0,250C0,111.93,111.93,0,250,0z"/>
</g></g><g transform="translate(552,552) scale(0.092,0.092)"><g transform="" style="fill: rgb(255, 249, 249);">
<path d="M250,0c138.077,0,250,111.93,250,250c0,138.077-111.923,250-250,250C111.93,500,0,388.077,0,250C0,111.93,111.93,0,250,0z"/>
</g></g><g transform="translate(736,552) scale(0.092,0.092)"><g transform="" style="fill: rgb(255, 249, 249);">
<path d="M250,0c138.077,0,250,111.93,250,250c0,138.077-111.923,250-250,250C111.93,500,0,388.077,0,250C0,111.93,111.93,0,250,0z"/>
</g></g><g transform="translate(828,552) scale(0.092,0.092)"><g transform="" style="fill: rgb(255, 249, 249);">
<path d="M250,0c138.077,0,250,111.93,250,250c0,138.077-111.923,250-250,250C111.93,500,0,388.077,0,250C0,111.93,111.93,0,250,0z"/>
</g></g><g transform="translate(874,552) scale(0.092,0.092)"><g transform="" style="fill: rgb(255, 249, 249);">
<path d="M250,0c138.077,0,250,111.93,250,250c0,138.077-111.923,250-250,250C111.93,500,0,388.077,0,250C0,111.93,111.93,0,250,0z"/>
</g></g><g transform="translate(1104,552) scale(0.092,0.092)"><g transform="" style="fill: rgb(255, 249, 249);">
<path d="M250,0c138.077,0,250,111.93,250,250c0,138.077-111.923,250-250,250C111.93,500,0,388.077,0,250C0,111.93,111.93,0,250,0z"/>
</g></g><g transform="translate(0,598) scale(0.092,0.092)"><g transform="" style="fill: rgb(255, 249, 249);">
<path d="M250,0c138.077,0,250,111.93,250,250c0,138.077-111.923,250-250,250C111.93,500,0,388.077,0,250C0,111.93,111.93,0,250,0z"/>
</g></g><g transform="translate(230,598) scale(0.092,0.092)"><g transform="" style="fill: rgb(255, 249, 249);">
<path d="M250,0c138.077,0,250,111.93,250,250c0,138.077-111.923,250-250,250C111.93,500,0,388.077,0,250C0,111.93,111.93,0,250,0z"/>
</g></g><g transform="translate(460,598) scale(0.092,0.092)"><g transform="" style="fill: rgb(255, 249, 249);">
<path d="M250,0c138.077,0,250,111.93,250,250c0,138.077-111.923,250-250,250C111.93,500,0,388.077,0,250C0,111.93,111.93,0,250,0z"/>
</g></g><g transform="translate(552,598) scale(0.092,0.092)"><g transform="" style="fill: rgb(255, 249, 249);">
<path d="M250,0c138.077,0,250,111.93,250,250c0,138.077-111.923,250-250,250C111.93,500,0,388.077,0,250C0,111.93,111.93,0,250,0z"/>
</g></g><g transform="translate(644,598) scale(0.092,0.092)"><g transform="" style="fill: rgb(255, 249, 249);">
<path d="M250,0c138.077,0,250,111.93,250,250c0,138.077-111.923,250-250,250C111.93,500,0,388.077,0,250C0,111.93,111.93,0,250,0z"/>
</g></g><g transform="translate(690,598) scale(0.092,0.092)"><g transform="" style="fill: rgb(255, 249, 249);">
<path d="M250,0c138.077,0,250,111.93,250,250c0,138.077-111.923,250-250,250C111.93,500,0,388.077,0,250C0,111.93,111.93,0,250,0z"/>
</g></g><g transform="translate(782,598) scale(0.092,0.092)"><g transform="" style="fill: rgb(255, 249, 249);">
<path d="M250,0c138.077,0,250,111.93,250,250c0,138.077-111.923,250-250,250C111.93,500,0,388.077,0,250C0,111.93,111.93,0,250,0z"/>
</g></g><g transform="translate(874,598) scale(0.092,0.092)"><g transform="" style="fill: rgb(255, 249, 249);">
<path d="M250,0c138.077,0,250,111.93,250,250c0,138.077-111.923,250-250,250C111.93,500,0,388.077,0,250C0,111.93,111.93,0,250,0z"/>
</g></g><g transform="translate(1058,598) scale(0.092,0.092)"><g transform="" style="fill: rgb(255, 249, 249);">
<path d="M250,0c138.077,0,250,111.93,250,250c0,138.077-111.923,250-250,250C111.93,500,0,388.077,0,250C0,111.93,111.93,0,250,0z"/>
</g></g><g transform="translate(0,644) scale(0.092,0.092)"><g transform="" style="fill: rgb(255, 249, 249);">
<path d="M250,0c138.077,0,250,111.93,250,250c0,138.077-111.923,250-250,250C111.93,500,0,388.077,0,250C0,111.93,111.93,0,250,0z"/>
</g></g><g transform="translate(92,644) scale(0.092,0.092)"><g transform="" style="fill: rgb(255, 249, 249);">
<path d="M250,0c138.077,0,250,111.93,250,250c0,138.077-111.923,250-250,250C111.93,500,0,388.077,0,250C0,111.93,111.93,0,250,0z"/>
</g></g><g transform="translate(138,644) scale(0.092,0.092)"><g transform="" style="fill: rgb(255, 249, 249);">
<path d="M250,0c138.077,0,250,111.93,250,250c0,138.077-111.923,250-250,250C111.93,500,0,388.077,0,250C0,111.93,111.93,0,250,0z"/>
</g></g><g transform="translate(230,644) scale(0.092,0.092)"><g transform="" style="fill: rgb(255, 249, 249);">
<path d="M250,0c138.077,0,250,111.93,250,250c0,138.077-111.923,250-250,250C111.93,500,0,388.077,0,250C0,111.93,111.93,0,250,0z"/>
</g></g><g transform="translate(276,644) scale(0.092,0.092)"><g transform="" style="fill: rgb(255, 249, 249);">
<path d="M250,0c138.077,0,250,111.93,250,250c0,138.077-111.923,250-250,250C111.93,500,0,388.077,0,250C0,111.93,111.93,0,250,0z"/>
</g></g><g transform="translate(322,644) scale(0.092,0.092)"><g transform="" style="fill: rgb(255, 249, 249);">
<path d="M250,0c138.077,0,250,111.93,250,250c0,138.077-111.923,250-250,250C111.93,500,0,388.077,0,250C0,111.93,111.93,0,250,0z"/>
</g></g><g transform="translate(368,644) scale(0.092,0.092)"><g transform="" style="fill: rgb(255, 249, 249);">
<path d="M250,0c138.077,0,250,111.93,250,250c0,138.077-111.923,250-250,250C111.93,500,0,388.077,0,250C0,111.93,111.93,0,250,0z"/>
</g></g><g transform="translate(460,644) scale(0.092,0.092)"><g transform="" style="fill: rgb(255, 249, 249);">
<path d="M250,0c138.077,0,250,111.93,250,250c0,138.077-111.923,250-250,250C111.93,500,0,388.077,0,250C0,111.93,111.93,0,250,0z"/>
</g></g><g transform="translate(644,644) scale(0.092,0.092)"><g transform="" style="fill: rgb(255, 249, 249);">
<path d="M250,0c138.077,0,250,111.93,250,250c0,138.077-111.923,250-250,250C111.93,500,0,388.077,0,250C0,111.93,111.93,0,250,0z"/>
</g></g><g transform="translate(690,644) scale(0.092,0.092)"><g transform="" style="fill: rgb(255, 249, 249);">
<path d="M250,0c138.077,0,250,111.93,250,250c0,138.077-111.923,250-250,250C111.93,500,0,388.077,0,250C0,111.93,111.93,0,250,0z"/>
</g></g><g transform="translate(782,644) scale(0.092,0.092)"><g transform="" style="fill: rgb(255, 249, 249);">
<path d="M250,0c138.077,0,250,111.93,250,250c0,138.077-111.923,250-250,250C111.93,500,0,388.077,0,250C0,111.93,111.93,0,250,0z"/>
</g></g><g transform="translate(828,644) scale(0.092,0.092)"><g transform="" style="fill: rgb(255, 249, 249);">
<path d="M250,0c138.077,0,250,111.93,250,250c0,138.077-111.923,250-250,250C111.93,500,0,388.077,0,250C0,111.93,111.93,0,250,0z"/>
</g></g><g transform="translate(874,644) scale(0.092,0.092)"><g transform="" style="fill: rgb(255, 249, 249);">
<path d="M250,0c138.077,0,250,111.93,250,250c0,138.077-111.923,250-250,250C111.93,500,0,388.077,0,250C0,111.93,111.93,0,250,0z"/>
</g></g><g transform="translate(920,644) scale(0.092,0.092)"><g transform="" style="fill: rgb(255, 249, 249);">
<path d="M250,0c138.077,0,250,111.93,250,250c0,138.077-111.923,250-250,250C111.93,500,0,388.077,0,250C0,111.93,111.93,0,250,0z"/>
</g></g><g transform="translate(966,644) scale(0.092,0.092)"><g transform="" style="fill: rgb(255, 249, 249);">
<path d="M250,0c138.077,0,250,111.93,250,250c0,138.077-111.923,250-250,250C111.93,500,0,388.077,0,250C0,111.93,111.93,0,250,0z"/>
</g></g><g transform="translate(1058,644) scale(0.092,0.092)"><g transform="" style="fill: rgb(255, 249, 249);">
<path d="M250,0c138.077,0,250,111.93,250,250c0,138.077-111.923,250-250,250C111.93,500,0,388.077,0,250C0,111.93,111.93,0,250,0z"/>
</g></g><g transform="translate(1104,644) scale(0.092,0.092)"><g transform="" style="fill: rgb(255, 249, 249);">
<path d="M250,0c138.077,0,250,111.93,250,250c0,138.077-111.923,250-250,250C111.93,500,0,388.077,0,250C0,111.93,111.93,0,250,0z"/>
</g></g><g transform="translate(0,690) scale(0.092,0.092)"><g transform="" style="fill: rgb(255, 249, 249);">
<path d="M250,0c138.077,0,250,111.93,250,250c0,138.077-111.923,250-250,250C111.93,500,0,388.077,0,250C0,111.93,111.93,0,250,0z"/>
</g></g><g transform="translate(184,690) scale(0.092,0.092)"><g transform="" style="fill: rgb(255, 249, 249);">
<path d="M250,0c138.077,0,250,111.93,250,250c0,138.077-111.923,250-250,250C111.93,500,0,388.077,0,250C0,111.93,111.93,0,250,0z"/>
</g></g><g transform="translate(230,690) scale(0.092,0.092)"><g transform="" style="fill: rgb(255, 249, 249);">
<path d="M250,0c138.077,0,250,111.93,250,250c0,138.077-111.923,250-250,250C111.93,500,0,388.077,0,250C0,111.93,111.93,0,250,0z"/>
</g></g><g transform="translate(368,690) scale(0.092,0.092)"><g transform="" style="fill: rgb(255, 249, 249);">
<path d="M250,0c138.077,0,250,111.93,250,250c0,138.077-111.923,250-250,250C111.93,500,0,388.077,0,250C0,111.93,111.93,0,250,0z"/>
</g></g><g transform="translate(690,690) scale(0.092,0.092)"><g transform="" style="fill: rgb(255, 249, 249);">
<path d="M250,0c138.077,0,250,111.93,250,250c0,138.077-111.923,250-250,250C111.93,500,0,388.077,0,250C0,111.93,111.93,0,250,0z"/>
</g></g><g transform="translate(736,690) scale(0.092,0.092)"><g transform="" style="fill: rgb(255, 249, 249);">
<path d="M250,0c138.077,0,250,111.93,250,250c0,138.077-111.923,250-250,250C111.93,500,0,388.077,0,250C0,111.93,111.93,0,250,0z"/>
</g></g><g transform="translate(828,690) scale(0.092,0.092)"><g transform="" style="fill: rgb(255, 249, 249);">
<path d="M250,0c138.077,0,250,111.93,250,250c0,138.077-111.923,250-250,250C111.93,500,0,388.077,0,250C0,111.93,111.93,0,250,0z"/>
</g></g><g transform="translate(874,690) scale(0.092,0.092)"><g transform="" style="fill: rgb(255, 249, 249);">
<path d="M250,0c138.077,0,250,111.93,250,250c0,138.077-111.923,250-250,250C111.93,500,0,388.077,0,250C0,111.93,111.93,0,250,0z"/>
</g></g><g transform="translate(966,690) scale(0.092,0.092)"><g transform="" style="fill: rgb(255, 249, 249);">
<path d="M250,0c138.077,0,250,111.93,250,250c0,138.077-111.923,250-250,250C111.93,500,0,388.077,0,250C0,111.93,111.93,0,250,0z"/>
</g></g><g transform="translate(1012,690) scale(0.092,0.092)"><g transform="" style="fill: rgb(255, 249, 249);">
<path d="M250,0c138.077,0,250,111.93,250,250c0,138.077-111.923,250-250,250C111.93,500,0,388.077,0,250C0,111.93,111.93,0,250,0z"/>
</g></g><g transform="translate(1104,690) scale(0.092,0.092)"><g transform="" style="fill: rgb(255, 249, 249);">
<path d="M250,0c138.077,0,250,111.93,250,250c0,138.077-111.923,250-250,250C111.93,500,0,388.077,0,250C0,111.93,111.93,0,250,0z"/>
</g></g><g transform="translate(0,736) scale(0.092,0.092)"><g transform="" style="fill: rgb(255, 249, 249);">
<path d="M250,0c138.077,0,250,111.93,250,250c0,138.077-111.923,250-250,250C111.93,500,0,388.077,0,250C0,111.93,111.93,0,250,0z"/>
</g></g><g transform="translate(92,736) scale(0.092,0.092)"><g transform="" style="fill: rgb(255, 249, 249);">
<path d="M250,0c138.077,0,250,111.93,250,250c0,138.077-111.923,250-250,250C111.93,500,0,388.077,0,250C0,111.93,111.93,0,250,0z"/>
</g></g><g transform="translate(184,736) scale(0.092,0.092)"><g transform="" style="fill: rgb(255, 249, 249);">
<path d="M250,0c138.077,0,250,111.93,250,250c0,138.077-111.923,250-250,250C111.93,500,0,388.077,0,250C0,111.93,111.93,0,250,0z"/>
</g></g><g transform="translate(276,736) scale(0.092,0.092)"><g transform="" style="fill: rgb(255, 249, 249);">
<path d="M250,0c138.077,0,250,111.93,250,250c0,138.077-111.923,250-250,250C111.93,500,0,388.077,0,250C0,111.93,111.93,0,250,0z"/>
</g></g><g transform="translate(322,736) scale(0.092,0.092)"><g transform="" style="fill: rgb(255, 249, 249);">
<path d="M250,0c138.077,0,250,111.93,250,250c0,138.077-111.923,250-250,250C111.93,500,0,388.077,0,250C0,111.93,111.93,0,250,0z"/>
</g></g><g transform="translate(552,736) scale(0.092,0.092)"><g transform="" style="fill: rgb(255, 249, 249);">
<path d="M250,0c138.077,0,250,111.93,250,250c0,138.077-111.923,250-250,250C111.93,500,0,388.077,0,250C0,111.93,111.93,0,250,0z"/>
</g></g><g transform="translate(598,736) scale(0.092,0.092)"><g transform="" style="fill: rgb(255, 249, 249);">
<path d="M250,0c138.077,0,250,111.93,250,250c0,138.077-111.923,250-250,250C111.93,500,0,388.077,0,250C0,111.93,111.93,0,250,0z"/>
</g></g><g transform="translate(644,736) scale(0.092,0.092)"><g transform="" style="fill: rgb(255, 249, 249);">
<path d="M250,0c138.077,0,250,111.93,250,250c0,138.077-111.923,250-250,250C111.93,500,0,388.077,0,250C0,111.93,111.93,0,250,0z"/>
</g></g><g transform="translate(690,736) scale(0.092,0.092)"><g transform="" style="fill: rgb(255, 249, 249);">
<path d="M250,0c138.077,0,250,111.93,250,250c0,138.077-111.923,250-250,250C111.93,500,0,388.077,0,250C0,111.93,111.93,0,250,0z"/>
</g></g><g transform="translate(736,736) scale(0.092,0.092)"><g transform="" style="fill: rgb(255, 249, 249);">
<path d="M250,0c138.077,0,250,111.93,250,250c0,138.077-111.923,250-250,250C111.93,500,0,388.077,0,250C0,111.93,111.93,0,250,0z"/>
</g></g><g transform="translate(782,736) scale(0.092,0.092)"><g transform="" style="fill: rgb(255, 249, 249);">
<path d="M250,0c138.077,0,250,111.93,250,250c0,138.077-111.923,250-250,250C111.93,500,0,388.077,0,250C0,111.93,111.93,0,250,0z"/>
</g></g><g transform="translate(828,736) scale(0.092,0.092)"><g transform="" style="fill: rgb(255, 249, 249);">
<path d="M250,0c138.077,0,250,111.93,250,250c0,138.077-111.923,250-250,250C111.93,500,0,388.077,0,250C0,111.93,111.93,0,250,0z"/>
</g></g><g transform="translate(874,736) scale(0.092,0.092)"><g transform="" style="fill: rgb(255, 249, 249);">
<path d="M250,0c138.077,0,250,111.93,250,250c0,138.077-111.923,250-250,250C111.93,500,0,388.077,0,250C0,111.93,111.93,0,250,0z"/>
</g></g><g transform="translate(920,736) scale(0.092,0.092)"><g transform="" style="fill: rgb(255, 249, 249);">
<path d="M250,0c138.077,0,250,111.93,250,250c0,138.077-111.923,250-250,250C111.93,500,0,388.077,0,250C0,111.93,111.93,0,250,0z"/>
</g></g><g transform="translate(1012,736) scale(0.092,0.092)"><g transform="" style="fill: rgb(255, 249, 249);">
<path d="M250,0c138.077,0,250,111.93,250,250c0,138.077-111.923,250-250,250C111.93,500,0,388.077,0,250C0,111.93,111.93,0,250,0z"/>
</g></g><g transform="translate(368,782) scale(0.092,0.092)"><g transform="" style="fill: rgb(255, 249, 249);">
<path d="M250,0c138.077,0,250,111.93,250,250c0,138.077-111.923,250-250,250C111.93,500,0,388.077,0,250C0,111.93,111.93,0,250,0z"/>
</g></g><g transform="translate(414,782) scale(0.092,0.092)"><g transform="" style="fill: rgb(255, 249, 249);">
<path d="M250,0c138.077,0,250,111.93,250,250c0,138.077-111.923,250-250,250C111.93,500,0,388.077,0,250C0,111.93,111.93,0,250,0z"/>
</g></g><g transform="translate(506,782) scale(0.092,0.092)"><g transform="" style="fill: rgb(255, 249, 249);">
<path d="M250,0c138.077,0,250,111.93,250,250c0,138.077-111.923,250-250,250C111.93,500,0,388.077,0,250C0,111.93,111.93,0,250,0z"/>
</g></g><g transform="translate(598,782) scale(0.092,0.092)"><g transform="" style="fill: rgb(255, 249, 249);">
<path d="M250,0c138.077,0,250,111.93,250,250c0,138.077-111.923,250-250,250C111.93,500,0,388.077,0,250C0,111.93,111.93,0,250,0z"/>
</g></g><g transform="translate(736,782) scale(0.092,0.092)"><g transform="" style="fill: rgb(255, 249, 249);">
<path d="M250,0c138.077,0,250,111.93,250,250c0,138.077-111.923,250-250,250C111.93,500,0,388.077,0,250C0,111.93,111.93,0,250,0z"/>
</g></g><g transform="translate(920,782) scale(0.092,0.092)"><g transform="" style="fill: rgb(255, 249, 249);">
<path d="M250,0c138.077,0,250,111.93,250,250c0,138.077-111.923,250-250,250C111.93,500,0,388.077,0,250C0,111.93,111.93,0,250,0z"/>
</g></g><g transform="translate(506,828) scale(0.092,0.092)"><g transform="" style="fill: rgb(255, 249, 249);">
<path d="M250,0c138.077,0,250,111.93,250,250c0,138.077-111.923,250-250,250C111.93,500,0,388.077,0,250C0,111.93,111.93,0,250,0z"/>
</g></g><g transform="translate(644,828) scale(0.092,0.092)"><g transform="" style="fill: rgb(255, 249, 249);">
<path d="M250,0c138.077,0,250,111.93,250,250c0,138.077-111.923,250-250,250C111.93,500,0,388.077,0,250C0,111.93,111.93,0,250,0z"/>
</g></g><g transform="translate(736,828) scale(0.092,0.092)"><g transform="" style="fill: rgb(255, 249, 249);">
<path d="M250,0c138.077,0,250,111.93,250,250c0,138.077-111.923,250-250,250C111.93,500,0,388.077,0,250C0,111.93,111.93,0,250,0z"/>
</g></g><g transform="translate(828,828) scale(0.092,0.092)"><g transform="" style="fill: rgb(255, 249, 249);">
<path d="M250,0c138.077,0,250,111.93,250,250c0,138.077-111.923,250-250,250C111.93,500,0,388.077,0,250C0,111.93,111.93,0,250,0z"/>
</g></g><g transform="translate(920,828) scale(0.092,0.092)"><g transform="" style="fill: rgb(255, 249, 249);">
<path d="M250,0c138.077,0,250,111.93,250,250c0,138.077-111.923,250-250,250C111.93,500,0,388.077,0,250C0,111.93,111.93,0,250,0z"/>
</g></g><g transform="translate(1104,828) scale(0.092,0.092)"><g transform="" style="fill: rgb(255, 249, 249);">
<path d="M250,0c138.077,0,250,111.93,250,250c0,138.077-111.923,250-250,250C111.93,500,0,388.077,0,250C0,111.93,111.93,0,250,0z"/>
</g></g><g transform="translate(460,874) scale(0.092,0.092)"><g transform="" style="fill: rgb(255, 249, 249);">
<path d="M250,0c138.077,0,250,111.93,250,250c0,138.077-111.923,250-250,250C111.93,500,0,388.077,0,250C0,111.93,111.93,0,250,0z"/>
</g></g><g transform="translate(690,874) scale(0.092,0.092)"><g transform="" style="fill: rgb(255, 249, 249);">
<path d="M250,0c138.077,0,250,111.93,250,250c0,138.077-111.923,250-250,250C111.93,500,0,388.077,0,250C0,111.93,111.93,0,250,0z"/>
</g></g><g transform="translate(736,874) scale(0.092,0.092)"><g transform="" style="fill: rgb(255, 249, 249);">
<path d="M250,0c138.077,0,250,111.93,250,250c0,138.077-111.923,250-250,250C111.93,500,0,388.077,0,250C0,111.93,111.93,0,250,0z"/>
</g></g><g transform="translate(920,874) scale(0.092,0.092)"><g transform="" style="fill: rgb(255, 249, 249);">
<path d="M250,0c138.077,0,250,111.93,250,250c0,138.077-111.923,250-250,250C111.93,500,0,388.077,0,250C0,111.93,111.93,0,250,0z"/>
</g></g><g transform="translate(552,920) scale(0.092,0.092)"><g transform="" style="fill: rgb(255, 249, 249);">
<path d="M250,0c138.077,0,250,111.93,250,250c0,138.077-111.923,250-250,250C111.93,500,0,388.077,0,250C0,111.93,111.93,0,250,0z"/>
</g></g><g transform="translate(598,920) scale(0.092,0.092)"><g transform="" style="fill: rgb(255, 249, 249);">
<path d="M250,0c138.077,0,250,111.93,250,250c0,138.077-111.923,250-250,250C111.93,500,0,388.077,0,250C0,111.93,111.93,0,250,0z"/>
</g></g><g transform="translate(644,920) scale(0.092,0.092)"><g transform="" style="fill: rgb(255, 249, 249);">
<path d="M250,0c138.077,0,250,111.93,250,250c0,138.077-111.923,250-250,250C111.93,500,0,388.077,0,250C0,111.93,111.93,0,250,0z"/>
</g></g><g transform="translate(690,920) scale(0.092,0.092)"><g transform="" style="fill: rgb(255, 249, 249);">
<path d="M250,0c138.077,0,250,111.93,250,250c0,138.077-111.923,250-250,250C111.93,500,0,388.077,0,250C0,111.93,111.93,0,250,0z"/>
</g></g><g transform="translate(736,920) scale(0.092,0.092)"><g transform="" style="fill: rgb(255, 249, 249);">
<path d="M250,0c138.077,0,250,111.93,250,250c0,138.077-111.923,250-250,250C111.93,500,0,388.077,0,250C0,111.93,111.93,0,250,0z"/>
</g></g><g transform="translate(782,920) scale(0.092,0.092)"><g transform="" style="fill: rgb(255, 249, 249);">
<path d="M250,0c138.077,0,250,111.93,250,250c0,138.077-111.923,250-250,250C111.93,500,0,388.077,0,250C0,111.93,111.93,0,250,0z"/>
</g></g><g transform="translate(828,920) scale(0.092,0.092)"><g transform="" style="fill: rgb(255, 249, 249);">
<path d="M250,0c138.077,0,250,111.93,250,250c0,138.077-111.923,250-250,250C111.93,500,0,388.077,0,250C0,111.93,111.93,0,250,0z"/>
</g></g><g transform="translate(874,920) scale(0.092,0.092)"><g transform="" style="fill: rgb(255, 249, 249);">
<path d="M250,0c138.077,0,250,111.93,250,250c0,138.077-111.923,250-250,250C111.93,500,0,388.077,0,250C0,111.93,111.93,0,250,0z"/>
</g></g><g transform="translate(920,920) scale(0.092,0.092)"><g transform="" style="fill: rgb(255, 249, 249);">
<path d="M250,0c138.077,0,250,111.93,250,250c0,138.077-111.923,250-250,250C111.93,500,0,388.077,0,250C0,111.93,111.93,0,250,0z"/>
</g></g><g transform="translate(1012,920) scale(0.092,0.092)"><g transform="" style="fill: rgb(255, 249, 249);">
<path d="M250,0c138.077,0,250,111.93,250,250c0,138.077-111.923,250-250,250C111.93,500,0,388.077,0,250C0,111.93,111.93,0,250,0z"/>
</g></g><g transform="translate(414,966) scale(0.092,0.092)"><g transform="" style="fill: rgb(255, 249, 249);">
<path d="M250,0c138.077,0,250,111.93,250,250c0,138.077-111.923,250-250,250C111.93,500,0,388.077,0,250C0,111.93,111.93,0,250,0z"/>
</g></g><g transform="translate(460,966) scale(0.092,0.092)"><g transform="" style="fill: rgb(255, 249, 249);">
<path d="M250,0c138.077,0,250,111.93,250,250c0,138.077-111.923,250-250,250C111.93,500,0,388.077,0,250C0,111.93,111.93,0,250,0z"/>
</g></g><g transform="translate(506,966) scale(0.092,0.092)"><g transform="" style="fill: rgb(255, 249, 249);">
<path d="M250,0c138.077,0,250,111.93,250,250c0,138.077-111.923,250-250,250C111.93,500,0,388.077,0,250C0,111.93,111.93,0,250,0z"/>
</g></g><g transform="translate(598,966) scale(0.092,0.092)"><g transform="" style="fill: rgb(255, 249, 249);">
<path d="M250,0c138.077,0,250,111.93,250,250c0,138.077-111.923,250-250,250C111.93,500,0,388.077,0,250C0,111.93,111.93,0,250,0z"/>
</g></g><g transform="translate(644,966) scale(0.092,0.092)"><g transform="" style="fill: rgb(255, 249, 249);">
<path d="M250,0c138.077,0,250,111.93,250,250c0,138.077-111.923,250-250,250C111.93,500,0,388.077,0,250C0,111.93,111.93,0,250,0z"/>
</g></g><g transform="translate(690,966) scale(0.092,0.092)"><g transform="" style="fill: rgb(255, 249, 249);">
<path d="M250,0c138.077,0,250,111.93,250,250c0,138.077-111.923,250-250,250C111.93,500,0,388.077,0,250C0,111.93,111.93,0,250,0z"/>
</g></g><g transform="translate(736,966) scale(0.092,0.092)"><g transform="" style="fill: rgb(255, 249, 249);">
<path d="M250,0c138.077,0,250,111.93,250,250c0,138.077-111.923,250-250,250C111.93,500,0,388.077,0,250C0,111.93,111.93,0,250,0z"/>
</g></g><g transform="translate(782,966) scale(0.092,0.092)"><g transform="" style="fill: rgb(255, 249, 249);">
<path d="M250,0c138.077,0,250,111.93,250,250c0,138.077-111.923,250-250,250C111.93,500,0,388.077,0,250C0,111.93,111.93,0,250,0z"/>
</g></g><g transform="translate(828,966) scale(0.092,0.092)"><g transform="" style="fill: rgb(255, 249, 249);">
<path d="M250,0c138.077,0,250,111.93,250,250c0,138.077-111.923,250-250,250C111.93,500,0,388.077,0,250C0,111.93,111.93,0,250,0z"/>
</g></g><g transform="translate(1058,966) scale(0.092,0.092)"><g transform="" style="fill: rgb(255, 249, 249);">
<path d="M250,0c138.077,0,250,111.93,250,250c0,138.077-111.923,250-250,250C111.93,500,0,388.077,0,250C0,111.93,111.93,0,250,0z"/>
</g></g><g transform="translate(1104,966) scale(0.092,0.092)"><g transform="" style="fill: rgb(255, 249, 249);">
<path d="M250,0c138.077,0,250,111.93,250,250c0,138.077-111.923,250-250,250C111.93,500,0,388.077,0,250C0,111.93,111.93,0,250,0z"/>
</g></g><g transform="translate(414,1012) scale(0.092,0.092)"><g transform="" style="fill: rgb(255, 249, 249);">
<path d="M250,0c138.077,0,250,111.93,250,250c0,138.077-111.923,250-250,250C111.93,500,0,388.077,0,250C0,111.93,111.93,0,250,0z"/>
</g></g><g transform="translate(460,1012) scale(0.092,0.092)"><g transform="" style="fill: rgb(255, 249, 249);">
<path d="M250,0c138.077,0,250,111.93,250,250c0,138.077-111.923,250-250,250C111.93,500,0,388.077,0,250C0,111.93,111.93,0,250,0z"/>
</g></g><g transform="translate(598,1012) scale(0.092,0.092)"><g transform="" style="fill: rgb(255, 249, 249);">
<path d="M250,0c138.077,0,250,111.93,250,250c0,138.077-111.923,250-250,250C111.93,500,0,388.077,0,250C0,111.93,111.93,0,250,0z"/>
</g></g><g transform="translate(966,1012) scale(0.092,0.092)"><g transform="" style="fill: rgb(255, 249, 249);">
<path d="M250,0c138.077,0,250,111.93,250,250c0,138.077-111.923,250-250,250C111.93,500,0,388.077,0,250C0,111.93,111.93,0,250,0z"/>
</g></g><g transform="translate(1012,1012) scale(0.092,0.092)"><g transform="" style="fill: rgb(255, 249, 249);">
<path d="M250,0c138.077,0,250,111.93,250,250c0,138.077-111.923,250-250,250C111.93,500,0,388.077,0,250C0,111.93,111.93,0,250,0z"/>
</g></g><g transform="translate(1104,1012) scale(0.092,0.092)"><g transform="" style="fill: rgb(255, 249, 249);">
<path d="M250,0c138.077,0,250,111.93,250,250c0,138.077-111.923,250-250,250C111.93,500,0,388.077,0,250C0,111.93,111.93,0,250,0z"/>
</g></g><g transform="translate(414,1058) scale(0.092,0.092)"><g transform="" style="fill: rgb(255, 249, 249);">
<path d="M250,0c138.077,0,250,111.93,250,250c0,138.077-111.923,250-250,250C111.93,500,0,388.077,0,250C0,111.93,111.93,0,250,0z"/>
</g></g><g transform="translate(460,1058) scale(0.092,0.092)"><g transform="" style="fill: rgb(255, 249, 249);">
<path d="M250,0c138.077,0,250,111.93,250,250c0,138.077-111.923,250-250,250C111.93,500,0,388.077,0,250C0,111.93,111.93,0,250,0z"/>
</g></g><g transform="translate(690,1058) scale(0.092,0.092)"><g transform="" style="fill: rgb(255, 249, 249);">
<path d="M250,0c138.077,0,250,111.93,250,250c0,138.077-111.923,250-250,250C111.93,500,0,388.077,0,250C0,111.93,111.93,0,250,0z"/>
</g></g><g transform="translate(736,1058) scale(0.092,0.092)"><g transform="" style="fill: rgb(255, 249, 249);">
<path d="M250,0c138.077,0,250,111.93,250,250c0,138.077-111.923,250-250,250C111.93,500,0,388.077,0,250C0,111.93,111.93,0,250,0z"/>
</g></g><g transform="translate(874,1058) scale(0.092,0.092)"><g transform="" style="fill: rgb(255, 249, 249);">
<path d="M250,0c138.077,0,250,111.93,250,250c0,138.077-111.923,250-250,250C111.93,500,0,388.077,0,250C0,111.93,111.93,0,250,0z"/>
</g></g><g transform="translate(920,1058) scale(0.092,0.092)"><g transform="" style="fill: rgb(255, 249, 249);">
<path d="M250,0c138.077,0,250,111.93,250,250c0,138.077-111.923,250-250,250C111.93,500,0,388.077,0,250C0,111.93,111.93,0,250,0z"/>
</g></g><g transform="translate(1104,1058) scale(0.092,0.092)"><g transform="" style="fill: rgb(255, 249, 249);">
<path d="M250,0c138.077,0,250,111.93,250,250c0,138.077-111.923,250-250,250C111.93,500,0,388.077,0,250C0,111.93,111.93,0,250,0z"/>
</g></g><g transform="translate(368,1104) scale(0.092,0.092)"><g transform="" style="fill: rgb(255, 249, 249);">
<path d="M250,0c138.077,0,250,111.93,250,250c0,138.077-111.923,250-250,250C111.93,500,0,388.077,0,250C0,111.93,111.93,0,250,0z"/>
</g></g><g transform="translate(460,1104) scale(0.092,0.092)"><g transform="" style="fill: rgb(255, 249, 249);">
<path d="M250,0c138.077,0,250,111.93,250,250c0,138.077-111.923,250-250,250C111.93,500,0,388.077,0,250C0,111.93,111.93,0,250,0z"/>
</g></g><g transform="translate(506,1104) scale(0.092,0.092)"><g transform="" style="fill: rgb(255, 249, 249);">
<path d="M250,0c138.077,0,250,111.93,250,250c0,138.077-111.923,250-250,250C111.93,500,0,388.077,0,250C0,111.93,111.93,0,250,0z"/>
</g></g><g transform="translate(552,1104) scale(0.092,0.092)"><g transform="" style="fill: rgb(255, 249, 249);">
<path d="M250,0c138.077,0,250,111.93,250,250c0,138.077-111.923,250-250,250C111.93,500,0,388.077,0,250C0,111.93,111.93,0,250,0z"/>
</g></g><g transform="translate(736,1104) scale(0.092,0.092)"><g transform="" style="fill: rgb(255, 249, 249);">
<path d="M250,0c138.077,0,250,111.93,250,250c0,138.077-111.923,250-250,250C111.93,500,0,388.077,0,250C0,111.93,111.93,0,250,0z"/>
</g></g><g transform="translate(782,1104) scale(0.092,0.092)"><g transform="" style="fill: rgb(255, 249, 249);">
<path d="M250,0c138.077,0,250,111.93,250,250c0,138.077-111.923,250-250,250C111.93,500,0,388.077,0,250C0,111.93,111.93,0,250,0z"/>
</g></g><g transform="translate(828,1104) scale(0.092,0.092)"><g transform="" style="fill: rgb(255, 249, 249);">
<path d="M250,0c138.077,0,250,111.93,250,250c0,138.077-111.923,250-250,250C111.93,500,0,388.077,0,250C0,111.93,111.93,0,250,0z"/>
</g></g><g transform="translate(966,1104) scale(0.092,0.092)"><g transform="" style="fill: rgb(255, 249, 249);">
<path d="M250,0c138.077,0,250,111.93,250,250c0,138.077-111.923,250-250,250C111.93,500,0,388.077,0,250C0,111.93,111.93,0,250,0z"/>
</g></g><g transform="translate(1104,1104) scale(0.092,0.092)"><g transform="" style="fill: rgb(255, 249, 249);">
<path d="M250,0c138.077,0,250,111.93,250,250c0,138.077-111.923,250-250,250C111.93,500,0,388.077,0,250C0,111.93,111.93,0,250,0z"/>
</g></g><g transform="translate(0,0) scale(3.22, 3.22)"><g transform="" style="fill: rgb(255, 249, 249);">
<g>
	<path style="fill:none;" d="M65.859,15.008H34.141c-4.082,0-7.869,1.258-10.979,3.398c-2.419,1.665-4.428,3.864-5.848,6.421   C15.838,27.484,15,30.526,15,33.758v32.471c0,10.344,8.586,18.76,19.145,18.76L50,84.992l15.855-0.004   C76.414,84.988,85,76.572,85,66.229V33.758C85,23.419,76.414,15.008,65.859,15.008z"/>
	<path d="M65.859,0.008H34.141h0C18.683,0.008,5.587,10.221,1.4,24.18c-0.433,1.444-0.771,2.928-1.006,4.445   C0.135,30.299,0,32.013,0,33.758v32.471c0,18.619,15.32,33.76,34.141,33.76L50,99.992l15.859-0.004   c18.82,0,34.141-15.141,34.141-33.76V33.758C100,15.148,84.68,0.008,65.859,0.008z M85,66.229c0,10.344-8.586,18.76-19.145,18.76   L50,84.992l-15.855-0.004C23.586,84.988,15,76.572,15,66.229V33.758c0-3.231,0.838-6.273,2.313-8.931   c1.42-2.557,3.429-4.756,5.848-6.421c3.11-2.141,6.897-3.398,10.979-3.398h31.719C76.414,15.008,85,23.419,85,33.758V66.229z"/>
</g>
</g></g><g transform="translate(828,0) scale(3.22, 3.22)"><g transform="" style="fill: rgb(255, 249, 249);">
<g>
	<path style="fill:none;" d="M65.859,15.008H34.141c-4.082,0-7.869,1.258-10.979,3.398c-2.419,1.665-4.428,3.864-5.848,6.421   C15.838,27.484,15,30.526,15,33.758v32.471c0,10.344,8.586,18.76,19.145,18.76L50,84.992l15.855-0.004   C76.414,84.988,85,76.572,85,66.229V33.758C85,23.419,76.414,15.008,65.859,15.008z"/>
	<path d="M65.859,0.008H34.141h0C18.683,0.008,5.587,10.221,1.4,24.18c-0.433,1.444-0.771,2.928-1.006,4.445   C0.135,30.299,0,32.013,0,33.758v32.471c0,18.619,15.32,33.76,34.141,33.76L50,99.992l15.859-0.004   c18.82,0,34.141-15.141,34.141-33.76V33.758C100,15.148,84.68,0.008,65.859,0.008z M85,66.229c0,10.344-8.586,18.76-19.145,18.76   L50,84.992l-15.855-0.004C23.586,84.988,15,76.572,15,66.229V33.758c0-3.231,0.838-6.273,2.313-8.931   c1.42-2.557,3.429-4.756,5.848-6.421c3.11-2.141,6.897-3.398,10.979-3.398h31.719C76.414,15.008,85,23.419,85,33.758V66.229z"/>
</g>
</g></g><g transform="translate(0,828) scale(3.22, 3.22)"><g transform="" style="fill: rgb(255, 249, 249);">
<g>
	<path style="fill:none;" d="M65.859,15.008H34.141c-4.082,0-7.869,1.258-10.979,3.398c-2.419,1.665-4.428,3.864-5.848,6.421   C15.838,27.484,15,30.526,15,33.758v32.471c0,10.344,8.586,18.76,19.145,18.76L50,84.992l15.855-0.004   C76.414,84.988,85,76.572,85,66.229V33.758C85,23.419,76.414,15.008,65.859,15.008z"/>
	<path d="M65.859,0.008H34.141h0C18.683,0.008,5.587,10.221,1.4,24.18c-0.433,1.444-0.771,2.928-1.006,4.445   C0.135,30.299,0,32.013,0,33.758v32.471c0,18.619,15.32,33.76,34.141,33.76L50,99.992l15.859-0.004   c18.82,0,34.141-15.141,34.141-33.76V33.758C100,15.148,84.68,0.008,65.859,0.008z M85,66.229c0,10.344-8.586,18.76-19.145,18.76   L50,84.992l-15.855-0.004C23.586,84.988,15,76.572,15,66.229V33.758c0-3.231,0.838-6.273,2.313-8.931   c1.42-2.557,3.429-4.756,5.848-6.421c3.11-2.141,6.897-3.398,10.979-3.398h31.719C76.414,15.008,85,23.419,85,33.758V66.229z"/>
</g>
</g></g><g transform="translate(92,92) scale(1.38, 1.38)"><g transform="" style="fill: rgb(255, 249, 249);">
<g>
	<g id="XMLID_1_">
		<g>
			<path d="M27.351,100c-15.09,0-27.365-12.032-27.365-26.808V26.794c0-4.616,1.2-8.96,3.301-12.761     c2.029-3.658,4.901-6.802,8.36-9.174C16.09,1.801,21.506,0,27.336,0h45.327c15.076,0,27.351,12.018,27.351,26.793v46.398     c0,14.775-12.274,26.808-27.351,26.808H50H27.351z"/>
		</g>
		<g>
		</g>
	</g>
</g>
</g></g><g transform="translate(920,92) scale(1.38, 1.38)"><g transform="" style="fill: rgb(255, 249, 249);">
<g>
	<g id="XMLID_1_">
		<g>
			<path d="M27.351,100c-15.09,0-27.365-12.032-27.365-26.808V26.794c0-4.616,1.2-8.96,3.301-12.761     c2.029-3.658,4.901-6.802,8.36-9.174C16.09,1.801,21.506,0,27.336,0h45.327c15.076,0,27.351,12.018,27.351,26.793v46.398     c0,14.775-12.274,26.808-27.351,26.808H50H27.351z"/>
		</g>
		<g>
		</g>
	</g>
</g>
</g></g><g transform="translate(92,920) scale(1.38, 1.38)"><g transform="" style="fill: rgb(255, 249, 249);">
<g>
	<g id="XMLID_1_">
		<g>
			<path d="M27.351,100c-15.09,0-27.365-12.032-27.365-26.808V26.794c0-4.616,1.2-8.96,3.301-12.761     c2.029-3.658,4.901-6.802,8.36-9.174C16.09,1.801,21.506,0,27.336,0h45.327c15.076,0,27.351,12.018,27.351,26.793v46.398     c0,14.775-12.274,26.808-27.351,26.808H50H27.351z"/>
		</g>
		<g>
		</g>
	</g>
</g>
</g></g></g></svg>

